# xmcd
# 
# Track frame offsets:
#   150
#   16490
#   34396
#   51645
#   64818
#   82218
#   101311
#   115413
# 
# Disc length: 1754 seconds
# 
# Revision: 0
# Processed by: cddbd v1.5.1PL2 Copyright (c) Steve Scherf et al.
# Submitted via: Synapstar 1.0 
# 
DISCID=7106d808
DTITLE=Various Artist - unknown
DYEAR=1900
DGENRE=Country
TTITLE0=Toby Keith - Little Too Late
TTITLE1=Eric Church - How Bout You
TTITLE2=Rodney Atkins - If You're Going Through Hell
TTITLE3=Billy Currington - Why Why Why
TTITLE4=Steve Holy - Brand New Girlfriend
TTITLE5=Brad Paisley - The World
TTITLE6=Jake Owen - Yee-Haw
TTITLE7=Chris Cagle - What A Beautiful Day
EXTD=MediaType: Karaoke CD+G Producer: Unknown
EXTT0=
EXTT1=
EXTT2=
EXTT3=
EXTT4=
EXTT5=
EXTT6=
EXTT7=
PLAYORDER=
